<svg xmlns="http://www.w3.org/2000/svg" width="50" height="50" viewBox="0 0 50 50">
  <rect width="50" height="50" rx="6" fill="currentColor" opacity="0.92"/>
  <path fill="#ffffff" stroke="#333333" stroke-width="0.8" d="m 45.296843,14.820338 -34.446991,5.351727 c -1.465824,1.352131 -2.47495,2.656591 -2.863361,3.895884 A 2.3718579,2.1178164 0 0 0 6.937539,23.848753 2.3718579,2.1178164 0 0 0 4.5656002,25.966623 2.3718579,2.1178164 0 0 0 6.937539,28.084512 2.3718579,2.1178164 0 0 0 8.692825,27.38668 c 0.875622,1.031207 2.430809,1.991314 4.812905,2.864808 l 0.05373,-0.01549 C 9.908189,32.322465 7.643177,33.612452 3.3228154,32.339111 l 1.231635,3.51616 C 9.8836,36.559338 13.513562,35.20443 19.262588,31.668582 c 0.883473,2.564196 3.535478,4.31487 6.540089,4.317326 3.782744,5.7e-5 6.849294,-2.738045 6.84923,-6.115633 0,-1.68766 -0.782577,-3.300006 -2.160329,-4.455351 l 16.334066,-4.650569 z"/>
</svg>
