<?xml version="1.0" encoding="UTF-8" standalone="no"?>
<!-- Created with Inkscape (http://www.inkscape.org/) -->

<svg
   width="210mm"
   height="297mm"
   viewBox="0 0 210 297"
   version="1.1"
   id="svg5"
   xml:space="preserve"
   inkscape:version="1.2.2 (b0a8486541, 2022-12-01)"
   sodipodi:docname="logo.svg"
   xmlns:inkscape="http://www.inkscape.org/namespaces/inkscape"
   xmlns:sodipodi="http://sodipodi.sourceforge.net/DTD/sodipodi-0.dtd"
   xmlns:xlink="http://www.w3.org/1999/xlink"
   xmlns="http://www.w3.org/2000/svg"
   xmlns:svg="http://www.w3.org/2000/svg"><sodipodi:namedview
     id="namedview7"
     pagecolor="#ffffff"
     bordercolor="#000000"
     borderopacity="0.25"
     inkscape:showpageshadow="2"
     inkscape:pageopacity="0.0"
     inkscape:pagecheckerboard="0"
     inkscape:deskcolor="#d1d1d1"
     inkscape:document-units="mm"
     showgrid="false"
     inkscape:zoom="1.2598564"
     inkscape:cx="214.31015"
     inkscape:cy="387.74262"
     inkscape:window-width="2560"
     inkscape:window-height="1412"
     inkscape:window-x="1920"
     inkscape:window-y="0"
     inkscape:window-maximized="1"
     inkscape:current-layer="layer1" /><defs
     id="defs2"><linearGradient
       inkscape:collect="always"
       id="linearGradient6689"><stop
         style="stop-color:#000000;stop-opacity:1;"
         offset="0"
         id="stop6685" /><stop
         style="stop-color:#b3b3b3;stop-opacity:1;"
         offset="1"
         id="stop6687" /></linearGradient><linearGradient
       inkscape:collect="always"
       id="linearGradient5786"><stop
         style="stop-color:#ffffff;stop-opacity:1;"
         offset="0"
         id="stop5782" /><stop
         style="stop-color:#5688d9;stop-opacity:0.1083626;"
         offset="1"
         id="stop5784" /></linearGradient><linearGradient
       inkscape:collect="always"
       id="linearGradient4147"><stop
         style="stop-color:#ffffff;stop-opacity:1;"
         offset="0"
         id="stop4143" /><stop
         style="stop-color:#1e8aff;stop-opacity:0;"
         offset="1"
         id="stop4145" /></linearGradient><linearGradient
       inkscape:collect="always"
       id="linearGradient825"><stop
         style="stop-color:#0d17a3;stop-opacity:1;"
         offset="0"
         id="stop821" /><stop
         style="stop-color:#1e8aff;stop-opacity:1;"
         offset="1"
         id="stop823" /></linearGradient><radialGradient
       inkscape:collect="always"
       xlink:href="#linearGradient825"
       id="radialGradient829"
       cx="92.141518"
       cy="68.814461"
       fx="92.141518"
       fy="68.814461"
       r="40.150406"
       gradientUnits="userSpaceOnUse"
       gradientTransform="matrix(1.3101526,-0.1580946,0.10472159,0.86784277,-37.858429,15.75236)" /><filter
       inkscape:collect="always"
       style="color-interpolation-filters:sRGB"
       id="filter4032"
       x="-0.027215181"
       y="-0.027215181"
       width="1.0544304"
       height="1.0544304"><feGaussianBlur
         inkscape:collect="always"
         stdDeviation="0.90848354"
         id="feGaussianBlur4034" /></filter><linearGradient
       inkscape:collect="always"
       xlink:href="#linearGradient4147"
       id="linearGradient4141"
       x1="65.879379"
       y1="28.355583"
       x2="82.668938"
       y2="47.335922"
       gradientUnits="userSpaceOnUse"
       gradientTransform="matrix(0.96486522,0,0,0.96486522,4.7515645,4.2615172)" /><linearGradient
       inkscape:collect="always"
       xlink:href="#linearGradient4147"
       id="linearGradient4240"
       gradientUnits="userSpaceOnUse"
       gradientTransform="matrix(-0.73552309,-0.0040125,0.0040125,-0.73552309,161.1104,111.17921)"
       x1="65.514641"
       y1="27.611286"
       x2="78.263329"
       y2="44.857555" /><radialGradient
       inkscape:collect="always"
       xlink:href="#linearGradient5786"
       id="radialGradient5788"
       cx="85.655113"
       cy="60.798264"
       fx="85.655113"
       fy="60.798264"
       r="38.616622"
       gradientTransform="matrix(1.7576762,0.60819389,-0.4765547,1.3772399,-35.925145,-75.271445)"
       gradientUnits="userSpaceOnUse" /><clipPath
       clipPathUnits="userSpaceOnUse"
       id="clipPath5833"><use
         x="0"
         y="0"
         xlink:href="#g5829"
         id="use5835" /></clipPath><linearGradient
       inkscape:collect="always"
       xlink:href="#linearGradient6689"
       id="linearGradient6691"
       x1="162.56691"
       y1="102.29152"
       x2="162.43144"
       y2="46.234627"
       gradientUnits="userSpaceOnUse" /><filter
       inkscape:collect="always"
       style="color-interpolation-filters:sRGB"
       id="filter6881"
       x="-0.084056719"
       y="-0.084929711"
       width="1.1681134"
       height="1.1698594"><feGaussianBlur
         inkscape:collect="always"
         stdDeviation="2.5724781"
         id="feGaussianBlur6883" /></filter></defs><g
     inkscape:label="Capa 1"
     inkscape:groupmode="layer"
     id="layer1"><g
       id="g6911"
       transform="translate(14.521195,6.2203241)"
       inkscape:export-filename="logo.png"
       inkscape:export-xdpi="96"
       inkscape:export-ydpi="96"><g
         id="g5895"><circle
           style="fill:url(#radialGradient829);fill-opacity:1;stroke:none;stroke-width:0.185208;paint-order:fill markers stroke;filter:url(#filter4032)"
           id="path796"
           cx="89.654427"
           cy="59.787483"
           r="40.0578" /><path
           style="opacity:1;fill:url(#linearGradient4141);fill-opacity:1;stroke:none;stroke-width:0.185208;stroke-opacity:1;paint-order:fill markers stroke"
           d="m 108.89389,26.881787 c 0,0 -22.996686,-12.306473 -42.009277,3.138672 -24.199289,19.658632 -9.512021,48.124838 -9.512021,48.124838 z"
           id="path4090"
           sodipodi:nodetypes="cscc" /><path
           style="fill:url(#linearGradient4240);fill-opacity:1;stroke:none;stroke-width:0.185208;stroke-opacity:1;paint-order:fill markers stroke"
           d="m 79.79355,96.950899 c 0,0 19.745205,5.225661 33.51506,-6.116603 18.95374,-15.612255 13.67921,-36.114033 13.67921,-36.114033 z"
           id="path4090-6"
           sodipodi:nodetypes="cscc" /></g><g
         id="g5831"
         clip-path="url(#clipPath5833)"
         style="mix-blend-mode:screen;stroke-width:1.10543"
         transform="matrix(0.90462402,0,0,0.90462402,8.565299,5.7071034)"><g
           inkscape:label="Clip"
           id="g5829"
           style="mix-blend-mode:screen;stroke-width:1.10543"><circle
             style="fill:#000000;fill-opacity:1;stroke:#000000;stroke-width:0.204735;paint-order:fill markers stroke"
             id="path796-5-1"
             cx="89.805618"
             cy="59.837952"
             r="42.41293" /></g><path
           style="opacity:1;mix-blend-mode:normal;fill:url(#radialGradient5788);fill-opacity:1;stroke:none;stroke-width:0.204735;stroke-opacity:1;paint-order:fill markers stroke"
           d="m 93.868774,38.729021 c -0.20902,-0.616863 -0.12957,-0.94048 -0.61097,-1.186315 -0.854835,-0.436584 -0.536656,1.446922 -0.663304,1.538924 -0.636824,0.462593 -1.130458,0.513379 -1.449022,1.400755 -0.08697,0.24239 0.0032,0.955565 0.07684,1.129192 0.04823,0.114848 0.774146,0.295145 0.562198,0.504956 -1.345781,1.332236 -0.427416,2.414873 -1.204375,2.827034 -2.485241,1.318373 -2.397048,0.239667 -2.397048,-2.124198 0,-0.04228 -1.663236,0.709441 -2.096761,0.28465 -0.310735,-0.304459 0.242605,-0.618501 0.05627,-0.957423 -0.06591,-0.119735 -0.851682,-1.237732 -0.777522,-1.373281 0.859429,-1.571017 3.325283,-1.872146 4.629394,-3.149695 0.397209,-0.389111 -0.293839,-1.819253 0.32686,-2.248254 0.565944,-0.391147 4.00947,-1.820365 4.37932,-1.648368 1.47937,0.688014 2.60745,1.249144 4.07674,1.73891 0.39364,0.131213 -1.33943,0.893111 -1.74677,1.103173 -0.63422,0.327075 1.22692,1.715746 1.89099,1.205002 0.17216,-0.132403 0.22553,-0.986942 0.33474,-1.212756 0.10208,-0.211002 0.791336,-0.319006 0.63835,-0.73577 -0.0704,-0.191933 -0.67915,-1.059329 -0.5849,-1.167005 0.27747,-0.316968 1.058996,0.0228 1.370056,-0.186115 0.75403,-0.506453 1.96802,-2.225661 1.58359,-2.419424 -1.21635,-0.613074 -4.473966,-2.432963 -3.210336,-4.496898 0.15048,-0.245872 0.92882,1.624084 0.963476,1.763092 0.2335,0.936603 2.13696,2.343341 3.17897,1.987691 0.42882,-0.146357 -0.75257,-1.649932 -0.8503,-1.943162 -0.71466,-2.143972 1.79103,-0.544981 0.44131,-2.576925 -0.82376,-1.240101 -0.70824,-3.367755 -1.46193,-4.395785 -0.49203,-0.671119 -3.164396,0.04305 -2.736736,-0.416224 1.34336,-1.442642 2.780716,0.04956 3.969886,-0.66136 1.38258,-0.826545 1.84827,-2.597092 2.76394,-3.660554 0.42727,-0.496219 2.31104,0.544002 2.94862,0.257276 5.40662,-2.431389 12.19269,1.308761 16.877,4.285981 3.65938,2.325805 9.74378,6.517294 12.67674,9.375112 1.13586,1.106758 1.27329,2.748897 1.83705,4.141783 1.6065,3.969109 2.51824,8.276358 1.5706,12.602036 -0.87746,4.005354 -4.27279,11.492117 -3.25753,15.580609 0.48025,1.934047 -2.18864,5.448898 -4.39179,4.925908 -3.49301,-0.829168 -5.06214,-4.946831 -6.66718,-7.625022 -0.4179,-0.697312 -1.31395,0.233464 -1.99551,-0.268128 -0.2077,-0.152867 -1.15028,-1.50792 -1.22259,-1.421285 -1.94045,2.324589 -4.65254,1.941523 -6.89709,2.695542 -0.23041,0.07739 -1.19329,0.447053 -1.41445,0.340716 -0.25133,-0.120844 -2.71932,-2.186992 -2.95776,-0.741346 -0.16782,1.017508 3.7652,3.261832 4.18711,3.063803 0.46554,-0.218513 0.65171,-0.837735 1.05665,-1.14144 0.4014,-0.301053 1.16639,-0.739536 1.16639,-1.309353 0,-0.468358 -0.12058,1.361333 0.34782,1.361333 0.68201,0 1.39885,0.229553 1.54655,0.826945 0.73272,2.96363 -6.11524,10.962261 -8.54308,10.962261 -0.18929,0 -1.013,-1.489477 -1.36504,-1.851648 -1.03968,-1.069639 -1.50594,-2.888608 -2.48848,-4.151035 -1.01522,-1.304405 -3.09641,-2.199987 -3.8661,-3.354526 -0.16509,-0.247637 -1.51022,-1.530422 -1.53596,-1.510277 -1.02243,0.800203 1.04644,2.180259 1.21239,2.628222 1.07899,2.912453 3.96628,7.687879 6.68679,9.105986 0.21368,0.111375 1.72178,0.908271 1.80469,0.86369 0.63594,-0.341997 4.4649,-1.756838 4.4649,-2.325936 0,-0.472669 0.2059,0.951136 0.10916,1.413796 -1.27109,6.078675 -5.78828,8.360759 -7.97009,13.590211 -0.96261,2.307167 1.22245,3.464734 1.0614,3.947886 -0.64706,1.941171 -3.54827,2.385421 -4.18564,4.155956 -0.53363,1.48237 0.63816,3.870496 0.0886,5.034876 -0.1723,0.36502 -2.88756,4.10866 -3.05808,4.19626 -0.1688,0.0867 -0.65636,-0.0443 -0.80098,-0.10843 -3.251716,-1.4421 -5.241756,-1.33918 -8.528446,-1.99652 -2.568997,-0.5138 -5.049319,-3.62023 -5.414601,-6.063493 -0.147418,-0.9857 0.33477,-2.256057 0.0016,-3.089104 -0.774982,-1.937471 -2.733167,-3.370262 -3.393606,-5.359021 -0.441049,-1.328149 1.04625,-2.842542 -0.15819,-5.251571 -0.161324,-0.322643 -0.664651,-0.253214 -0.955999,-0.253214 -1.921724,0 -3.199117,-1.055444 -4.834574,-1.510813 -2.158992,-0.601135 -5.058676,0.162558 -7.443344,-0.595742 -3.825813,-1.21657 -6.319864,-5.193673 -7.214452,-8.324708 -0.23521,-0.823204 1.451369,-1.281121 1.542456,-1.952383 0.0836,-0.616057 0.05627,-1.178697 0.250546,-1.751951 0.394075,-1.163027 -0.77331,-3.782591 0.10964,-4.66554 0.888286,-0.888351 2.800349,-0.756612 3.74831,-1.715227 0.843161,-0.852639 1.208812,-0.827496 1.980241,-1.341776 1.533663,-1.022437 1.459504,-2.398436 3.941385,-3.31714 0.432962,-0.160263 1.431997,0.511714 1.847887,0.615685 1.195967,0.29899 2.700291,0.08708 3.897191,-0.0839 0.940453,-0.134348 4.653059,-1.275301 5.416739,-0.225646 0.49881,0.685626 -0.432367,1.807484 -0.0844,2.429607 0.424056,0.758182 2.984566,1.122194 3.805895,1.739123 0.23349,0.175383 1.894427,1.547609 2.054186,1.387867 0.36181,-0.361755 0.76759,-1.928547 1.28785,-2.196326 1.62168,-0.834672 3.62873,1.927511 5.24959,1.102242 0.52341,-0.266502 1.112036,-0.838564 1.721306,-1.140323 0.90203,-0.446768 1.85385,0.447079 2.43706,-0.863987 2.51509,-5.654057 -3.12099,-1.703398 -5.554506,-2.935562 -0.76719,-0.388445 -0.27238,-2.616611 0.17915,-2.915307 0.65687,-0.434526 1.63055,-1.268721 2.444786,-1.5502 1.44221,-0.498567 6.58085,0.847657 4.67685,-2.249157 -0.56173,-0.913651 -6.120576,-2.099806 -6.346516,-1.760918 -0.91495,1.372448 -0.26155,4.30194 -0.8627,5.208661 -0.61926,0.934048 -2.1735,-0.07395 -2.7714,0.895941 -0.54948,0.891354 1.00177,1.258182 0.33702,1.905862 -0.99023,0.964812 -2.65885,1.133645 -2.20444,-0.27676 0.41851,-1.298961 -0.56009,-1.067299 -0.946529,-1.851045 -0.222188,-0.450621 0.430279,-0.799274 0.146293,-1.271543 -0.223652,-0.371889 -0.808582,-0.367066 -1.095122,-0.605669 -0.452109,-0.376445 -1.862581,-3.46136 -2.782377,-2.762944 -2.077759,1.577717 2.519821,4.670892 3.428074,5.180398 0.225773,0.126664 -0.533502,0.127226 -0.708555,0.317947 -0.04019,0.04386 0.30797,0.518333 0.222944,0.671833 -0.09517,0.171675 -0.710067,0.9573 -0.838949,1.03428 -0.248216,0.148238 -3.030174,0.810665 -2.600041,-0.08991 0.170262,-0.356485 1.304642,0.03373 1.623979,-0.147498 0.214905,-0.12197 0.773728,-1.329887 0.516735,-1.632156 -0.701305,-0.82492 -1.319111,-0.900834 -2.100958,-1.477879 -0.86594,-0.639106 -1.130023,-1.971691 -1.809995,-2.657227 -0.03263,-0.03292 -1.786604,1.120838 -2.09279,1.120838 -0.332005,0 -1.16695,-0.604717 -1.365057,-0.457496 -0.222734,0.165532 -0.0926,1.200348 -0.278004,1.41035 -0.317873,0.360003 -1.52929,0.127613 -1.85607,0.751127 -0.346746,0.661589 -0.302118,1.762516 -0.945388,2.405791 -0.958845,0.958843 -2.710725,-0.564997 -3.411548,-0.03714 -0.20989,0.158093 -0.775882,0.54119 -1.110089,0.54119 -0.16949,0 0.463523,-8e-5 0.479664,-0.168807 0.02894,-0.302482 -2.110362,-1.253078 -2.445372,-1.253078 -0.338885,0 0.313709,-0.601003 0.459102,-0.907126 0.05707,-0.120105 -0.410617,-1.298726 -0.497283,-1.298726 -0.136326,0 0.218201,-0.166273 0.309288,-0.267761 0.532152,-0.592986 0.889219,-1.346222 1.346569,-1.99089 0.201964,-0.284702 0.04308,-0.992944 0.253215,-1.197822 0.138898,-0.135457 0.83022,0.04125 0.962751,0.08596 0.158993,0.05361 1.283068,0.119509 1.283068,-0.05648 0,-0.531731 0.681355,0.859883 1.156356,1.098869 0.975982,0.491046 1.257395,-0.820254 1.762314,-1.553042 0.354977,-0.515203 -1.758037,-2.137865 -1.73402,-2.387144 0.0013,-0.01511 1.170873,0 1.175101,0 0.931499,0 2.092694,-0.369674 2.895954,-0.773134 0.95534,-0.479851 1.496993,-1.334621 2.423669,-1.809432 0.464713,-0.23811 1.365523,0.03525 1.720033,-0.31924 0.69547,-0.695465 -1.10414,-2.157121 0.2441,-2.836873 0.725307,-0.36568 0.0537,2.09174 0.531156,2.331193 2.240176,1.123561 3.594831,0.243572 5.231622,-0.953743 0.73854,-0.540234 -0.485869,-1.219675 -0.0971,-1.660507 0.30617,-0.347169 0.90073,-0.594294 1.08114,-0.929936 0.11414,-0.21244 -0.32706,-0.45058 -0.16688,-0.602812 0.19993,-0.189986 2.18562,-0.994445 1.7175,-1.465943 -0.75126,-0.756664 -2.12562,0.844358 -2.54231,-0.483085 -0.259744,-0.82747 -0.10225,-1.507163 0.81353,-1.414016 z"
           id="path5780" /></g><path
         id="rect6745-3"
         style="fill:#262626;fill-opacity:1;stroke:none;stroke-width:0.185208;stroke-opacity:1;paint-order:fill markers stroke;filter:url(#filter6881)"
         d="m 60.035954,22.177702 c -2.052676,3.593368 -3.941979,7.199066 -10.452592,10.452076 l 4.750615,4.750614 c 0.712372,-1.23204 1.46843,-2.436136 2.311486,-3.584278 l 13.124264,13.124264 v 5.16e-4 c -1.193876,2.376794 -2.818392,4.799136 -4.603853,6.620785 -1.864506,1.780316 -2.829285,2.217436 -2.829285,2.217436 l 6.389792,2.898531 2.556432,-4.291211 51.750327,40.506055 C 109.73731,77.991443 94.307589,59.235997 82.104375,43.803773 l 3.922758,-2.337326 -2.898015,-6.389791 c 0,0 -0.437112,0.964774 -2.217436,2.829285 -1.456205,0.98806 -3.894422,2.889946 -6.189285,4.270024 L 61.451372,28.905456 c 0.999296,-0.731117 2.102672,-1.395933 3.334679,-1.977657 z" /><g
         id="g6806"
         transform="rotate(-45,123.90614,150.35897)"><rect
           style="opacity:1;fill:#262626;fill-opacity:1;stroke:none;stroke-width:0.185208;stroke-opacity:1;paint-order:fill markers stroke"
           id="rect6745"
           width="6.8568034"
           height="21.065697"
           x="158.72023"
           y="19.702509" /><path
           id="path5897"
           style="opacity:1;fill:url(#linearGradient6691);fill-opacity:1;stroke:none;stroke-width:0.185208;stroke-opacity:1;paint-order:fill markers stroke"
           d="m 169.70954,44.926973 -7.8657,-2.271362 v 0.01447 l -7.36128,2.271363 7.99355,65.585256 c 2.55859,-21.535777 4.93031,-45.96493 7.23343,-65.599726 z"
           sodipodi:nodetypes="ccccccc" /><path
           id="path6655"
           style="opacity:1;fill:#5a5a5a;fill-opacity:1;stroke:none;stroke-width:0.185208;stroke-opacity:1;paint-order:fill markers stroke"
           d="m 161.89399,37.672636 c -3.03306,1.495697 -7.40075,2.673724 -11.11095,2.710946 -2.57728,-0.05953 -3.56877,-0.433049 -3.56877,-0.433049 l 2.46858,6.568075 12.04061,-3.049943 12.34912,3.127457 2.4691,-6.567558 c 0,0 -0.99149,0.373002 -3.56878,0.432532 -2.72673,-0.522244 -8.79157,-1.163052 -11.07891,-2.78846 z"
           sodipodi:nodetypes="ccccccccc" /><path
           id="rect6799"
           style="opacity:1;fill:#141414;fill-opacity:1;stroke-width:0.185208;paint-order:fill markers stroke"
           d="m 154.55141,14.578206 c 6.90393,2.303476 10.78937,1.089435 14.78173,0 v 6.717802 c -5.34511,-1.916403 -10.12581,-1.244348 -14.78173,0 z"
           sodipodi:nodetypes="ccccc" /></g></g></g></svg>
